<?xml version="1.0" encoding="UTF-8"?>
<svg version="1.1" xmlns="http://www.w3.org/2000/svg" width="315" height="277">
<path d="M0 0 C103.95 0 207.9 0 315 0 C315 91.41 315 182.82 315 277 C211.05 277 107.1 277 0 277 C0 185.59 0 94.18 0 0 Z " fill="#4D48D4" transform="translate(0,0)"/>
<path d="M0 0 C103.95 0 207.9 0 315 0 C315 91.41 315 182.82 315 277 C211.05 277 107.1 277 0 277 C0 185.59 0 94.18 0 0 Z M36 30 C28.72718678 40.74499501 24.91605767 50.83403317 24.83937073 63.90203857 C24.83428291 64.56023283 24.82919509 65.21842709 24.82395309 65.89656663 C24.80836638 68.08306081 24.79974017 70.26952226 24.79125977 72.45605469 C24.78170964 74.03215232 24.77181799 75.60824791 24.76161194 77.18434143 C24.73034365 82.34682768 24.70996489 87.5093294 24.69140625 92.671875 C24.68810893 93.55362554 24.68481161 94.43537607 24.68141437 95.34384632 C24.6506252 103.67860651 24.62395029 112.01337066 24.60699558 120.34817123 C24.58514698 130.95980659 24.54328466 141.5709324 24.47355801 152.18236423 C24.42605501 159.669786 24.40202683 167.15707166 24.3947987 174.64463925 C24.38987985 179.10272346 24.37516447 183.56023219 24.3350544 188.01815033 C23.51159788 221.372233 23.51159788 221.372233 39 250 C50.74828962 261.72620636 63.51273974 265.50969836 79.70639038 265.50878906 C81.28790593 265.49623454 82.86941837 265.48328211 84.45092773 265.4699707 C86.15590041 265.47048077 87.8608733 265.47274454 89.56584167 265.47660828 C94.1522747 265.48198125 98.73829662 265.46274443 103.32465625 265.43850732 C108.14196605 265.41706389 112.95927665 265.41780025 117.77662659 265.41581726 C125.85530588 265.40939173 133.93383253 265.38822311 142.01245117 265.35668945 C152.37167811 265.31630615 162.73080607 265.29898265 173.0901022 265.28938007 C182.02028405 265.28107222 190.95044514 265.26384735 199.8806088 265.24434257 C201.79227934 265.24029884 203.70395055 265.23655848 205.61562228 265.2331202 C211.06061419 265.22331437 216.50554742 265.20878003 221.9505024 265.1862812 C223.59721472 265.18017967 225.24393407 265.17571796 226.89065552 265.17303848 C229.14272011 265.16903098 231.39467738 265.15888847 233.64671326 265.14717102 C234.90521308 265.14289754 236.1637129 265.13862406 237.46034908 265.13422108 C241.03575184 264.99864432 244.46992071 264.56984547 248 264 C248.33 263.01 248.66 262.02 249 261 C249.71800781 260.88398438 250.43601563 260.76796875 251.17578125 260.6484375 C262.99011937 257.93587854 271.56232054 248.78667659 277.875 238.875 C283.6857433 226.93967789 284.59554329 213.58213399 284.51757812 200.54467773 C284.52301861 198.9819372 284.53015191 197.41920181 284.53881836 195.85647583 C284.55682478 191.66839365 284.55008013 187.48071209 284.53730202 183.29262424 C284.52705681 178.87590508 284.53659906 174.45921647 284.54284668 170.04249573 C284.55008922 162.63154038 284.5406244 155.22074537 284.52148438 147.80981445 C284.49971412 139.28284057 284.50678183 130.75624936 284.52879 122.2292847 C284.54703179 114.86226553 284.54945996 107.4953605 284.53903532 100.128326 C284.53284935 95.74835868 284.53182795 91.36857033 284.54518127 86.98861504 C284.55686847 82.8686867 284.54848368 78.74924449 284.52560425 74.62936783 C284.5203853 73.13156625 284.52171139 71.63372262 284.53065491 70.13593864 C284.61752184 54.08974467 282.03944381 38.0998401 270.96875 25.73046875 C256.25984764 11.79431669 239.77635456 9.53725085 220.42041016 9.58007812 C218.82017941 9.57271598 217.21995393 9.56412363 215.61973572 9.55441284 C211.31998481 9.53241619 207.02042673 9.52925497 202.72062731 9.53116035 C199.11027825 9.53128105 195.49996861 9.52267714 191.88963068 9.51438284 C183.36193991 9.49522824 174.83434699 9.49223617 166.30664062 9.49902344 C157.55474721 9.50566172 148.80327549 9.48279005 140.05146754 9.44570971 C132.49424964 9.41487095 124.93716643 9.40366784 117.37988698 9.40754652 C112.8852147 9.40959903 108.39087107 9.40436917 103.89625931 9.37965393 C99.66550405 9.35715231 95.4354283 9.35945552 91.20466805 9.37958145 C89.66696058 9.38295033 88.12920519 9.37808434 86.59156227 9.36359787 C67.23227567 9.19403026 48.60098589 14.36753816 36 30 Z " fill="#CCCFE2" transform="translate(0,0)"/>
<path d="M0 0 C0.66 0.33 1.32 0.66 2 1 C3.87376097 1.0961887 5.75096956 1.12796015 7.62719727 1.12939453 C8.80504288 1.13254669 9.98288849 1.13569885 11.19642639 1.13894653 C12.47351974 1.1369223 13.7506131 1.13489807 15.06640625 1.1328125 C17.02295387 1.13424759 17.02295387 1.13424759 19.01902771 1.13571167 C21.78051944 1.13718677 24.54197883 1.13503978 27.3034668 1.13037109 C30.85019021 1.12466831 34.39683804 1.12795745 37.94355869 1.13394356 C41.31784735 1.13841648 44.69211544 1.13528929 48.06640625 1.1328125 C49.34552383 1.13483673 50.62464142 1.13686096 51.94252014 1.13894653 C53.11721359 1.13579437 54.29190704 1.13264221 55.50219727 1.12939453 C56.54207291 1.12859894 57.58194855 1.12780334 58.65333557 1.12698364 C60.95839627 1.26422588 60.95839627 1.26422588 62 0 C64.18639453 -0.07258946 66.37500389 -0.08373783 68.5625 -0.0625 C70.35880859 -0.04896484 70.35880859 -0.04896484 72.19140625 -0.03515625 C73.11824219 -0.02355469 74.04507813 -0.01195313 75 0 C75 0.66 75 1.32 75 2 C75.7425 2.20625 76.485 2.4125 77.25 2.625 C81.02630521 4.5131526 82.16479961 6.19365844 84 10 C84.83822863 14.34875881 85.02416482 18.19945218 82.7890625 22.12890625 C80.24579643 25.22084647 77.82561639 27.64339844 74 29 C71.82981374 28.88813473 69.66247498 28.71429932 67.5 28.5 C59.84740319 28.36490743 56.11524798 31.18993134 50.77734375 36.30859375 C49.86082031 37.19675781 48.94429688 38.08492187 48 39 C46.27007896 40.40017791 44.52212118 41.77863024 42.75 43.125 C42.02296875 43.68445313 41.2959375 44.24390625 40.546875 44.8203125 C39.78117187 45.40425781 39.78117187 45.40425781 39 46 C40.56483626 50.69450877 44.4081494 52.7587693 48.2109375 55.765625 C50.35528843 57.48350838 52.32757485 59.23560601 54.3125 61.125 C56.89881212 63.33115131 56.89881212 63.33115131 60.25 62.875 C62.92493749 62.10210116 62.92493749 62.10210116 65 61 C69.7891446 60.31722989 73.77124667 60.39499778 77.875 63.125 C82.26279817 66.75944071 83.78280857 70.2896175 84.5 75.9375 C84.31378799 80.56619852 82.27191618 83.80887188 79 87 C75.17394812 89.81404157 72.53014098 90.36720847 67.8125 90.25 C66.76707031 90.23453125 65.72164063 90.2190625 64.64453125 90.203125 C62 90 62 90 60 89 C60 88.34 60 87.68 60 87 C52.34180778 87.10743828 44.68370677 87.22005879 37.02569008 87.33933926 C33.46995791 87.39455915 29.91421749 87.44797763 26.35839844 87.49731445 C22.27269398 87.55408168 18.18714475 87.61862054 14.1015625 87.68359375 C12.82133209 87.70030624 11.54110168 87.71701874 10.22207642 87.73423767 C8.45046646 87.7641555 8.45046646 87.7641555 6.64306641 87.79467773 C5.59937897 87.81022202 4.55569153 87.8257663 3.4803772 87.84178162 C0.99858218 87.83847204 0.99858218 87.83847204 -1 89 C-12.98725788 89.60952159 -12.98725788 89.60952159 -17.546875 85.66015625 C-20.9270211 81.62486947 -21.87218871 77.72621387 -21.6328125 72.5078125 C-20.49109322 67.98322126 -17.45724713 64.99575939 -14 62 C-10.0555334 60.0277667 -5.2979088 60.54541349 -1 61 C1.70744644 62.0616528 3.60815686 63.29913377 6 65 C6 64.34 6 63.68 6 63 C7.96598981 61.33370376 9.93379809 59.78295199 12 58.25 C12.59071289 57.80333984 13.18142578 57.35667969 13.79003906 56.89648438 C16.38342581 54.93905101 18.99320779 53.00500264 21.609375 51.078125 C22.66898438 50.29695313 22.66898438 50.29695313 23.75 49.5 C24.36359375 49.0565625 24.9771875 48.613125 25.609375 48.15625 C27.15176364 47.03133276 27.15176364 47.03133276 28 45 C27.44828125 44.76796875 26.8965625 44.5359375 26.328125 44.296875 C23.37489769 42.65178865 21.20887779 40.56837049 18.75 38.25 C13.78129148 33.67331636 13.78129148 33.67331636 8.625 29.3125 C8.03976563 28.83425781 7.45453125 28.35601562 6.8515625 27.86328125 C4.25215927 26.6513232 2.74775515 27.30595845 0 28 C-11.46697449 29.08033407 -11.46697449 29.08033407 -15.6875 25.8125 C-17.98404463 23.01940518 -18.79629204 21.56488931 -19 18 C-19.66 18 -20.32 18 -21 18 C-21.22025406 11.50250536 -20.7301672 7.78062585 -17.25 2.1875 C-11.99064524 -1.35245032 -6.16164065 -0.54666013 0 0 Z " fill="#EEEEF8" transform="translate(122,94)"/>
<path d="M0 0 C0.33 0 0.66 0 1 0 C1.09374703 20.69814621 1.16412726 41.39625703 1.20724869 62.09457302 C1.22780946 71.70675727 1.25580491 81.31880903 1.30175781 90.9309082 C1.34182537 99.31600305 1.36747985 107.70100187 1.37635398 116.08618981 C1.38153526 120.51959608 1.39357519 124.95272782 1.42292023 129.38604546 C1.45040549 133.57297651 1.45837945 137.75952431 1.45243073 141.94653702 C1.45351637 143.46973452 1.4612708 144.99294709 1.4768219 146.5160656 C1.61720792 160.9964801 0.09771901 176.1688856 -9 188 C-9.63679687 188.85078125 -10.27359375 189.7015625 -10.9296875 190.578125 C-16.55821049 197.46430331 -22.84629179 201.58944615 -31 205 C-31.99 205 -32.98 205 -34 205 C-34.33 205.99 -34.66 206.98 -35 208 C-39.85418383 208.78602014 -44.50526908 209.1272343 -49.420578 209.13371277 C-50.13427482 209.13597833 -50.84797165 209.13824388 -51.58329564 209.14057809 C-53.95683304 209.14687041 -56.33031264 209.14609184 -58.70385742 209.14526367 C-60.41266452 209.14825798 -62.12147095 209.15166114 -63.83027649 209.15544128 C-68.45808576 209.16425383 -73.08587653 209.16661813 -77.71369338 209.16725707 C-80.60514947 209.16796867 -83.49660088 209.17010499 -86.3880558 209.17275429 C-96.47509688 209.18199578 -106.56212475 209.18609032 -116.64916992 209.18530273 C-126.05425273 209.18470096 -135.45927836 209.19527536 -144.86434668 209.2110464 C-152.94176859 209.224109 -161.01917177 209.22948723 -169.09660417 209.22884732 C-173.92007194 209.22859213 -178.74348878 209.23145555 -183.56694603 209.24202538 C-188.09858675 209.2516858 -192.63012759 209.25179973 -197.16177177 209.24450874 C-198.82587072 209.24346062 -200.48997583 209.24583925 -202.15406418 209.2518692 C-204.4229522 209.25955942 -206.69149266 209.25496438 -208.96037292 209.24723816 C-210.23072986 209.24778293 -211.50108679 209.24832769 -212.80993938 209.24888897 C-215.81015419 209.0148118 -217.48666509 208.5861929 -220 207 C-219.38800467 207.00184359 -218.77600935 207.00368717 -218.14546871 207.00558662 C-203.2384981 207.04979945 -188.33153384 207.08287301 -173.42451382 207.10362434 C-166.21552103 207.11392686 -159.00657207 207.12796755 -151.79760742 207.15087891 C-145.512596 207.17084422 -139.22761634 207.18372389 -132.94257408 207.18817699 C-129.61621122 207.19077906 -126.28996009 207.19793044 -122.96362114 207.21146011 C-119.24579358 207.22598054 -115.52815409 207.22797768 -111.81030273 207.22705078 C-110.71338104 207.23424133 -109.61645935 207.24143188 -108.48629761 207.24884033 C-100.89382754 207.22836181 -94.67609231 206.83807688 -88.58984375 201.84765625 C-87.44612305 200.93016602 -87.44612305 200.93016602 -86.27929688 199.99414062 C-85.50650391 199.35669922 -84.73371094 198.71925781 -83.9375 198.0625 C-79.08165861 194.10126176 -74.62457274 190.80031919 -69 188 C-67.29736053 186.37009988 -65.63231317 184.70032622 -64 183 C-61.89004144 181.19560769 -59.70275704 179.50162112 -57.5 177.8125 C-56.94441406 177.37486328 -56.38882813 176.93722656 -55.81640625 176.48632812 C-52.67758921 174.06759264 -49.76441404 172.25714573 -46 171 C-46 170.34 -46 169.68 -46 169 C-43.64061622 167.08584011 -41.26933516 165.28165737 -38.8125 163.5 C-37.34587791 162.41861437 -35.87973935 161.33657269 -34.4140625 160.25390625 C-33.30466309 159.43817139 -33.30466309 159.43817139 -32.17285156 158.60595703 C-28.98518166 156.24994662 -25.83167267 153.85111624 -22.6875 151.4375 C-21.66011719 150.65246094 -20.63273438 149.86742187 -19.57421875 149.05859375 C-17.07117972 147.13631902 -17.07117972 147.13631902 -15.28515625 145.27734375 C-14 144 -14 144 -11.75 143.125 C-7.69346205 141.4655072 -3.01409783 139.02819567 -1 135 C-0.89479991 133.2137741 -0.85340034 131.42365228 -0.84178162 129.6343689 C-0.8319928 128.49570877 -0.82220398 127.35704865 -0.81211853 126.18388367 C-0.80636307 124.92872452 -0.8006076 123.67356537 -0.79467773 122.38037109 C-0.78477814 121.06334702 -0.77487854 119.74632294 -0.76467896 118.38938904 C-0.7375992 114.77187377 -0.7166063 111.15434542 -0.69667697 107.53678465 C-0.67483632 103.75843631 -0.64743825 99.98012845 -0.62062073 96.20181274 C-0.57066781 89.04433449 -0.52573864 81.88683379 -0.48259836 74.72931159 C-0.43324818 66.58187238 -0.37832184 58.43447379 -0.32291877 50.28707385 C-0.20905883 33.52475332 -0.10222855 16.76239559 0 0 Z " fill="#6933CA" transform="translate(283,56)"/>
<path d="M0 0 C1.6167467 -0.0002275 3.23349432 -0.00265578 4.85023499 -0.00708008 C9.1824784 -0.01271615 13.51403119 0.01226528 17.8461442 0.04359484 C22.40317115 0.07141992 26.96020483 0.07114848 31.51730347 0.0743103 C39.1543959 0.08346781 46.79123476 0.11085682 54.42822266 0.15136719 C65.18834586 0.2083936 75.94834286 0.2305633 86.70859361 0.24665189 C94.18763687 0.2591135 101.66666117 0.27977052 109.1456809 0.30203199 C110.95260224 0.3073852 112.75952422 0.31252247 114.56644678 0.31744432 C119.71022734 0.33177484 124.85393665 0.35125836 129.9976635 0.37892151 C131.55246063 0.3866136 133.10726677 0.39268801 134.66207695 0.39699936 C136.78918505 0.40326226 138.91617378 0.41563706 141.04324341 0.42959595 C142.23147768 0.43516825 143.41971195 0.44074055 144.64395332 0.4464817 C148.16483171 0.58875584 151.55718676 1.02676363 155.03466797 1.58349609 C155.03466797 1.91349609 155.03466797 2.24349609 155.03466797 2.58349609 C148.69255015 2.73549025 142.3502782 2.87613882 136.00772095 3.00854492 C133.64958598 3.05853568 131.29149118 3.11045809 128.93344116 3.16430664 C114.09526546 3.49784164 99.29145326 3.61408842 84.45219994 3.37138367 C82.0334635 3.33359932 79.61473008 3.30189982 77.19587708 3.27258301 C76.40043834 3.26291252 75.6049996 3.25324203 74.78545666 3.2432785 C73.18470171 3.22402622 71.58394344 3.20504852 69.98318195 3.18634796 C65.25723606 3.12728866 60.53428887 3.02704538 55.80975723 2.89839172 C52.82589749 2.82670985 49.84242404 2.79316917 46.85783768 2.76904297 C45.47232876 2.74986129 44.086927 2.71489855 42.70228195 2.66235352 C34.93834109 2.37551686 30.0393827 2.91857521 23.92797852 7.94873047 C22.68264595 9.1380719 22.68264595 9.1380719 21.41215515 10.35144043 C19.08197978 12.53907836 16.80537416 14.01603863 14.03466797 15.58349609 C12.79857732 16.61357163 11.58949445 17.67692792 10.40966797 18.77099609 C5.56062626 23.10147237 0.32533254 26.81590163 -4.96533203 30.58349609 C-9.89413826 34.13491689 -14.81004337 37.7005134 -19.65283203 41.36865234 C-26.38379603 46.46435863 -33.14492926 51.43623833 -40.15283203 56.14599609 C-46.68536697 60.54110612 -52.67342525 65.3723637 -58.58642578 70.56396484 C-60.96533203 72.58349609 -60.96533203 72.58349609 -61.96533203 72.58349609 C-62.01493313 68.2601883 -62.05114643 63.93703324 -62.07519531 59.61352539 C-62.08522555 58.14409498 -62.09885304 56.67468439 -62.11621094 55.20532227 C-62.14059102 53.08784073 -62.15184489 50.9706241 -62.16064453 48.85302734 C-62.17111816 47.58048096 -62.1815918 46.30793457 -62.19238281 44.99682617 C-61.97196116 41.68315398 -61.319618 39.57402382 -59.96533203 36.58349609 C-59.73845703 35.36662109 -59.51158203 34.14974609 -59.27783203 32.89599609 C-56.83627738 22.8458758 -47.64879445 13.24464715 -39.02783203 7.89599609 C-26.42026877 1.6777432 -13.85738177 -0.1589278 0 0 Z " fill="#3585EC" transform="translate(88.96533203125,9.41650390625)"/>
<path d="M0 0 C0.33 0 0.66 0 1 0 C1 53.13 1 106.26 1 161 C0.67 161 0.34 161 0 161 C-0.33 155.72 -0.66 150.44 -1 145 C-2.505625 146.423125 -4.01125 147.84625 -5.5625 149.3125 C-10.1679575 153.56495834 -15.01483543 157.41102582 -20.0625 161.125 C-20.71742432 161.61009033 -21.37234863 162.09518066 -22.04711914 162.5949707 C-26.74496376 166 -26.74496376 166 -29 166 C-29.33 166.99 -29.66 167.98 -30 169 C-35.37142857 173 -35.37142857 173 -38 173 C-38 173.66 -38 174.32 -38 175 C-39.32 175.33 -40.64 175.66 -42 176 C-42 176.66 -42 177.32 -42 178 C-43.42041016 179.26391602 -43.42041016 179.26391602 -45.4140625 180.69140625 C-46.14657227 181.22266113 -46.87908203 181.75391602 -47.63378906 182.30126953 C-48.41463867 182.86185059 -49.19548828 183.42243164 -50 184 C-51.53016696 185.13206142 -53.05879577 186.26620463 -54.5859375 187.40234375 C-56.18184521 188.58133374 -57.77820944 189.75970599 -59.375 190.9375 C-60.20773438 191.55214111 -61.04046875 192.16678223 -61.8984375 192.80004883 C-66.93818352 196.5104634 -72.00423636 200.16000996 -77.1875 203.66796875 C-78.97794544 204.9837918 -80.44882366 206.41523304 -82 208 C-76.77119539 207.8807627 -71.54254326 207.75646119 -66.31396484 207.62768555 C-64.5392576 207.58466332 -62.76451761 207.54296895 -60.98974609 207.50268555 C-47.4670876 207.20162319 -47.4670876 207.20162319 -34 206 C-34.33 206.66 -34.66 207.32 -35 208 C-39.81919087 208.95901726 -44.5181528 209.12725128 -49.420578 209.13371277 C-50.13427482 209.13597833 -50.84797165 209.13824388 -51.58329564 209.14057809 C-53.95683304 209.14687041 -56.33031264 209.14609184 -58.70385742 209.14526367 C-60.41266452 209.14825798 -62.12147095 209.15166114 -63.83027649 209.15544128 C-68.45808576 209.16425383 -73.08587653 209.16661813 -77.71369338 209.16725707 C-80.60514947 209.16796867 -83.49660088 209.17010499 -86.3880558 209.17275429 C-96.47509688 209.18199578 -106.56212475 209.18609032 -116.64916992 209.18530273 C-126.05425273 209.18470096 -135.45927836 209.19527536 -144.86434668 209.2110464 C-152.94176859 209.224109 -161.01917177 209.22948723 -169.09660417 209.22884732 C-173.92007194 209.22859213 -178.74348878 209.23145555 -183.56694603 209.24202538 C-188.09858675 209.2516858 -192.63012759 209.25179973 -197.16177177 209.24450874 C-198.82587072 209.24346062 -200.48997583 209.24583925 -202.15406418 209.2518692 C-204.4229522 209.25955942 -206.69149266 209.25496438 -208.96037292 209.24723816 C-210.23072986 209.24778293 -211.50108679 209.24832769 -212.80993938 209.24888897 C-215.81015419 209.0148118 -217.48666509 208.5861929 -220 207 C-219.38800467 207.00184359 -218.77600935 207.00368717 -218.14546871 207.00558662 C-203.2384981 207.04979945 -188.33153384 207.08287301 -173.42451382 207.10362434 C-166.21552103 207.11392686 -159.00657207 207.12796755 -151.79760742 207.15087891 C-145.512596 207.17084422 -139.22761634 207.18372389 -132.94257408 207.18817699 C-129.61621122 207.19077906 -126.28996009 207.19793044 -122.96362114 207.21146011 C-119.24579358 207.22598054 -115.52815409 207.22797768 -111.81030273 207.22705078 C-110.71338104 207.23424133 -109.61645935 207.24143188 -108.48629761 207.24884033 C-100.89382754 207.22836181 -94.67609231 206.83807688 -88.58984375 201.84765625 C-87.44612305 200.93016602 -87.44612305 200.93016602 -86.27929688 199.99414062 C-85.50650391 199.35669922 -84.73371094 198.71925781 -83.9375 198.0625 C-79.08165861 194.10126176 -74.62457274 190.80031919 -69 188 C-67.29736053 186.37009988 -65.63231317 184.70032622 -64 183 C-61.89004144 181.19560769 -59.70275704 179.50162112 -57.5 177.8125 C-56.94441406 177.37486328 -56.38882813 176.93722656 -55.81640625 176.48632812 C-52.67758921 174.06759264 -49.76441404 172.25714573 -46 171 C-46 170.34 -46 169.68 -46 169 C-43.64061622 167.08584011 -41.26933516 165.28165737 -38.8125 163.5 C-37.34587791 162.41861437 -35.87973935 161.33657269 -34.4140625 160.25390625 C-33.30466309 159.43817139 -33.30466309 159.43817139 -32.17285156 158.60595703 C-28.98518166 156.24994662 -25.83167267 153.85111624 -22.6875 151.4375 C-21.66011719 150.65246094 -20.63273438 149.86742187 -19.57421875 149.05859375 C-17.07117972 147.13631902 -17.07117972 147.13631902 -15.28515625 145.27734375 C-14 144 -14 144 -11.75 143.125 C-7.69346205 141.4655072 -3.01409783 139.02819567 -1 135 C-0.89479991 133.2137741 -0.85340034 131.42365228 -0.84178162 129.6343689 C-0.8319928 128.49570877 -0.82220398 127.35704865 -0.81211853 126.18388367 C-0.80636307 124.92872452 -0.8006076 123.67356537 -0.79467773 122.38037109 C-0.78477814 121.06334702 -0.77487854 119.74632294 -0.76467896 118.38938904 C-0.7375992 114.77187377 -0.7166063 111.15434542 -0.69667697 107.53678465 C-0.67483632 103.75843631 -0.64743825 99.98012845 -0.62062073 96.20181274 C-0.57066781 89.04433449 -0.52573864 81.88683379 -0.48259836 74.72931159 C-0.43324818 66.58187238 -0.37832184 58.43447379 -0.32291877 50.28707385 C-0.20905883 33.52475332 -0.10222855 16.76239559 0 0 Z " fill="#825DD3" transform="translate(283,56)"/>
<path d="M0 0 C16.17 0 32.34 0 49 0 C50 16 50 16 46.80859375 20.23046875 C44.69335938 21.78320312 44.69335938 21.78320312 42.4375 23.1875 C41.72013672 23.69345703 41.00277344 24.19941406 40.26367188 24.72070312 C38.85736559 25.71165551 37.4347771 26.67997226 35.99560547 27.62255859 C34.08624473 28.94047066 32.43185204 30.36184289 30.72265625 31.92578125 C28 34 28 34 26.00390625 34.12109375 C23.01539509 32.44915866 20.49620777 30.31366165 17.9375 28.0625 C17.37329346 27.56741943 16.80908691 27.07233887 16.2277832 26.56225586 C15.06127917 25.53786897 13.89616663 24.51189546 12.73242188 23.484375 C11.09602284 22.08227436 9.42040886 20.76965985 7.703125 19.46875 C6.70796875 18.6746875 5.7128125 17.880625 4.6875 17.0625 C3.78386719 16.37285156 2.88023437 15.68320313 1.94921875 14.97265625 C0 12 0 12 0 0 Z " fill="#4646CF" transform="translate(129,102)"/>
<path d="M0 0 C3.47635388 1.50800739 5.86629902 3.54601895 8.625 6.125 C12.86617253 10.08847671 17.27065847 13.37546555 22.1640625 16.4921875 C24 19 24 19 24 30 C7.83 30 -8.34 30 -25 30 C-25 19 -25 19 -22.0703125 15.546875 C-20.78169708 14.57830027 -19.46467226 13.64662978 -18.125 12.75 C-17.44622803 12.2540332 -16.76745605 11.75806641 -16.06811523 11.24707031 C-14.06768631 9.79625657 -12.03900969 8.395839 -10 7 C-8.93652344 6.236875 -7.87304688 5.47375 -6.77734375 4.6875 C-4.53912768 3.09015443 -2.28607738 1.52763759 0 0 Z " fill="#513BC4" transform="translate(154,145)"/>
<path d="M0 0 C1.8125 0.1875 1.8125 0.1875 4 1 C7.38872565 5.62850333 7.61940102 9.38372469 7.48828125 14.98046875 C6.7274395 19.68551411 4.51980518 22.85155041 1 26 C-2.4449489 28.2966326 -5.48211018 28.26856833 -9.5625 28.25 C-10.69816406 28.25515625 -11.83382812 28.2603125 -13.00390625 28.265625 C-16 28 -16 28 -19 26 C-21.07431961 25.70477123 -21.07431961 25.70477123 -23.37280273 25.75708008 C-24.25479843 25.75400345 -25.13679413 25.75092682 -26.04551697 25.74775696 C-26.99858231 25.75494247 -27.95164764 25.76212799 -28.93359375 25.76953125 C-30.41606346 25.77021858 -30.41606346 25.77021858 -31.92848206 25.7709198 C-34.02581986 25.77394379 -36.12315539 25.78183444 -38.22045898 25.79418945 C-41.39380076 25.81225128 -44.56684695 25.81470033 -47.74023438 25.81445312 C-64.07678015 25.25515193 -64.07678015 25.25515193 -80 28 C-84.77158838 28.55441313 -88.15293862 28.42353069 -92.5 26.25 C-94.93806165 24.05574452 -95.77069943 23.21020798 -96 20 C-95.34 20.33 -94.68 20.66 -94 21 C-94 21.66 -94 22.32 -94 23 C-85.32684487 24.66261569 -85.32684487 24.66261569 -77 23 C-75.12080452 22.90889219 -73.23833208 22.88247163 -71.35693359 22.88647461 C-70.17586029 22.88655014 -68.99478699 22.88662567 -67.77792358 22.88670349 C-66.49769318 22.89186478 -65.21746277 22.89702606 -63.8984375 22.90234375 C-62.59170074 22.9037587 -61.28496399 22.90517365 -59.93862915 22.90663147 C-56.46323742 22.91045106 -52.98788743 22.92027658 -49.51251221 22.93133545 C-45.96668055 22.94156157 -42.42084215 22.94613167 -38.875 22.95117188 C-31.91664951 22.96189934 -24.95832676 22.97896908 -18 23 C-18 23.66 -18 24.32 -18 25 C-8.82404098 25.9043502 -8.82404098 25.9043502 -0.3125 23.3125 C3.44545997 19.55454003 4.88385489 17.46342833 5.3125 12.0625 C5.16122829 8.43197887 4.54118841 5.32572236 3 2 C2.01 1.67 1.02 1.34 0 1 C0 0.67 0 0.34 0 0 Z " fill="#705ABF" transform="translate(200,158)"/>
<path d="M0 0 C1.0725 0.01417969 2.145 0.02835937 3.25 0.04296875 C4.3225 0.04941406 5.395 0.05585937 6.5 0.0625 C9.25 0.23046875 9.25 0.23046875 11.25 1.23046875 C13.02658359 1.32634399 14.80676936 1.3584253 16.5859375 1.35986328 C18.257771 1.36459152 18.257771 1.36459152 19.96337891 1.36941528 C21.17171387 1.36739105 22.38004883 1.36536682 23.625 1.36328125 C24.86040527 1.36423798 26.09581055 1.3651947 27.36865234 1.36618042 C30.65586084 1.36703679 33.94302236 1.36300219 37.23022461 1.35742188 C39.24789941 1.35547078 41.26553072 1.35741467 43.28320312 1.36083984 C47.14715613 1.36699867 51.01104435 1.36627359 54.875 1.36328125 C56.68750244 1.3663176 56.68750244 1.3663176 58.53662109 1.36941528 C59.65117676 1.36626312 60.76573242 1.36311096 61.9140625 1.35986328 C62.89842285 1.35906769 63.8827832 1.35827209 64.89697266 1.35745239 C67.27085748 1.38602551 67.27085748 1.38602551 69.25 0.23046875 C71.41490195 0.13361787 73.58293803 0.10067437 75.75 0.10546875 C76.9153125 0.10289063 78.080625 0.1003125 79.28125 0.09765625 C82.25 0.23046875 82.25 0.23046875 84.25 1.23046875 C84.25 1.89046875 84.25 2.55046875 84.25 3.23046875 C84.86875 3.35421875 85.4875 3.47796875 86.125 3.60546875 C88.25 4.23046875 88.25 4.23046875 90.25 6.23046875 C89.875 8.35546875 89.875 8.35546875 89.25 10.23046875 C88.074375 9.02390625 88.074375 9.02390625 86.875 7.79296875 C84.53017144 5.24356458 84.53017144 5.24356458 82.25 4.23046875 C82.25 3.57046875 82.25 2.91046875 82.25 2.23046875 C80.1037974 2.37076294 77.95803782 2.51785039 75.8125 2.66796875 C74.61753906 2.74917969 73.42257813 2.83039063 72.19140625 2.9140625 C69.36429756 2.90702989 69.36429756 2.90702989 68.25 4.23046875 C66.41956952 4.32951773 64.58530514 4.3584608 62.75219727 4.35986328 C60.99015709 4.36459152 60.99015709 4.36459152 59.19252014 4.36941528 C57.91340256 4.36739105 56.63428497 4.36536682 55.31640625 4.36328125 C54.01299789 4.36423798 52.70958954 4.3651947 51.36668396 4.36618042 C48.60341207 4.36765726 45.84017244 4.36550365 43.0769043 4.36083984 C39.53137163 4.35514813 35.98591474 4.35841809 32.44038486 4.36441231 C29.06571922 4.36889167 25.69107405 4.3657565 22.31640625 4.36328125 C21.0393129 4.36530548 19.76221954 4.36732971 18.44642639 4.36941528 C17.26858078 4.36626312 16.09073517 4.36311096 14.87719727 4.35986328 C13.83652603 4.35906769 12.7958548 4.35827209 11.72364807 4.35745239 C9.25 4.23046875 9.25 4.23046875 7.25 3.23046875 C5.2125237 3.00188761 3.16959697 2.82022597 1.125 2.66796875 C-0.51855469 2.54228516 -0.51855469 2.54228516 -2.1953125 2.4140625 C-3.03835937 2.35347656 -3.88140625 2.29289062 -4.75 2.23046875 C-2.75 0.23046875 -2.75 0.23046875 0 0 Z " fill="#4C50C8" transform="translate(114.75,91.76953125)"/>
<path d="M0 0 C0.66 0.33 1.32 0.66 2 1 C1.36191406 1.67546875 0.72382813 2.3509375 0.06640625 3.046875 C-0.75988281 3.93890625 -1.58617187 4.8309375 -2.4375 5.75 C-3.26121094 6.63171875 -4.08492187 7.5134375 -4.93359375 8.421875 C-7.33330373 11.41584208 -8 13.24587648 -8 17 C13.78 17.495 13.78 17.495 36 18 C35.505 12.555 35.505 12.555 35 7 C35.99 7.66 36.98 8.32 38 9 C38 12.63 38 16.26 38 20 C21.83 20 5.66 20 -11 20 C-11 9 -11 9 -8.59375 5.95703125 C-7.5728125 5.24933594 -6.551875 4.54164063 -5.5 3.8125 C-4.4790625 3.07644531 -3.458125 2.34039062 -2.40625 1.58203125 C-1.6121875 1.05996094 -0.818125 0.53789062 0 0 Z " fill="#6B58BD" transform="translate(140,155)"/>
<path d="M0 0 C3.85290923 7.70581847 4.28789999 14.54500695 4.22705078 23.00585938 C4.22734283 24.07992035 4.22763489 25.15398132 4.22793579 26.2605896 C4.22654948 29.78839372 4.2110211 33.31598306 4.1953125 36.84375 C4.19157989 39.29854212 4.18873409 41.75333574 4.18673706 44.20812988 C4.17912017 50.65250805 4.15948833 57.09679531 4.1373291 63.5411377 C4.11682879 70.12376679 4.1077264 76.70641065 4.09765625 83.2890625 C4.07624064 96.192747 4.04251549 109.09636865 4 122 C2 120 2 120 1.75390434 118.02037621 C1.75574793 117.20366762 1.75759151 116.38695904 1.75949097 115.54550171 C1.75674164 114.60878128 1.75399231 113.67206085 1.75115967 112.70695496 C1.75835022 111.67621353 1.76554077 110.64547211 1.77294922 109.58349609 C1.77265717 108.50055771 1.77236511 107.41761932 1.77206421 106.30186462 C1.77346172 102.70897512 1.78904282 99.11629094 1.8046875 95.5234375 C1.80841613 93.03764967 1.81126381 90.55186038 1.81326294 88.06607056 C1.82012874 82.18350914 1.83590453 76.30102398 1.85596192 70.41849387 C1.88049014 63.06546742 1.89124745 55.71243187 1.90234375 48.359375 C1.92381469 35.23954563 1.95758232 22.1197775 2 9 C1.34 9 0.68 9 0 9 C0 6.03 0 3.06 0 0 Z " fill="#543DC2" transform="translate(279,40)"/>
<path d="M0 0 C16.17 0 32.34 0 49 0 C49.495 7.92 49.495 7.92 50 16 C44 21 44 21 42 21 C42 20.01 42 19.02 42 18 C42.99 18 43.98 18 45 18 C45 17.34 45 16.68 45 16 C45.66 16 46.32 16 47 16 C47 11.38 47 6.76 47 2 C31.82 2 16.64 2 1 2 C1.33 5.63 1.66 9.26 2 13 C1.34 12.67 0.68 12.34 0 12 C0 8.04 0 4.08 0 0 Z " fill="#6868C4" transform="translate(129,102)"/>
<path d="M0 0 C3.60513403 2.06007659 6.80331012 4.3513141 10 7 C8.46346171 11.2824809 5.22236804 13.4106405 1.6875 16 C0.54527019 16.85376181 -0.59666105 17.70792322 -1.73828125 18.5625 C-2.2895166 18.96984375 -2.84075195 19.3771875 -3.40869141 19.796875 C-4.90293168 20.92661051 -6.35010296 22.11784748 -7.79296875 23.3125 C-10 25 -10 25 -12 25 C-12 25.66 -12 26.32 -12 27 C-14.96175123 26.38722388 -16.38058783 25.74627478 -19 24 C-22.20379124 23.75753217 -22.20379124 23.75753217 -25.6875 23.875 C-26.86699219 23.89304688 -28.04648438 23.91109375 -29.26171875 23.9296875 C-30.61716797 23.96449219 -30.61716797 23.96449219 -32 24 C-32 23.34 -32 22.68 -32 22 C-25.0892478 20.06721417 -21.39961937 19.73488808 -15 23 C-11.97870344 21.99290115 -9.70968098 20.6522445 -7 19 C-6.2575 18.67 -5.515 18.34 -4.75 18 C-2.64862526 17.05720054 -2.64862526 17.05720054 -2 14 C0.06640625 12.39453125 0.06640625 12.39453125 2.5625 10.8125 C3.38878906 10.28269531 4.21507812 9.75289062 5.06640625 9.20703125 C5.70449219 8.80871094 6.34257812 8.41039062 7 8 C6.4946875 7.59007812 5.989375 7.18015625 5.46875 6.7578125 C4.49421875 5.94957031 4.49421875 5.94957031 3.5 5.125 C2.8503125 4.59132812 2.200625 4.05765625 1.53125 3.5078125 C1.0259375 3.01023438 0.520625 2.51265625 0 2 C0 1.34 0 0.68 0 0 Z " fill="#574EB5" transform="translate(140,132)"/>
<path d="M0 0 C0.33 0 0.66 0 1 0 C1.00586624 0.69331924 1.01173248 1.38663849 1.01777649 2.10096741 C1.07620011 8.7040519 1.14854947 15.30682938 1.23571491 21.90960026 C1.28003571 25.30241996 1.31937002 28.69513006 1.34643555 32.08813477 C0.78218494 60.63908038 0.78218494 60.63908038 12.375 85.9375 C12.91125 86.618125 13.4475 87.29875 14 88 C13.67 88.99 13.34 89.98 13 91 C2.52283503 77.86861991 -0.49022977 65.6915698 -0.29296875 48.92578125 C-0.28735889 47.50661167 -0.28309538 46.08743619 -0.28010559 44.66825867 C-0.26876595 40.97091027 -0.2393958 37.27392729 -0.20599365 33.57672119 C-0.17505499 29.78882792 -0.16154993 26.00087439 -0.14648438 22.21289062 C-0.11451291 14.80842891 -0.06345239 7.40426606 0 0 Z " fill="#4942AF" transform="translate(26,159)"/>
<path d="M0 0 C1.05445312 0.00515625 2.10890625 0.0103125 3.1953125 0.015625 C4.76925781 0.00789063 4.76925781 0.00789063 6.375 0 C9.3203125 0.265625 9.3203125 0.265625 11.16046143 1.26229858 C13.84196025 2.50794864 15.87063574 2.54384046 18.82324219 2.58447266 C19.92408142 2.60434235 21.02492065 2.62421204 22.15911865 2.64468384 C23.34153137 2.65623505 24.52394409 2.66778625 25.7421875 2.6796875 C26.95731018 2.69905365 28.17243286 2.7184198 29.42437744 2.7383728 C33.30628434 2.79816306 37.1882209 2.84455246 41.0703125 2.890625 C43.70183587 2.92880522 46.33334674 2.96785698 48.96484375 3.0078125 C55.41655581 3.10386429 61.86834307 3.18891365 68.3203125 3.265625 C68.3203125 3.595625 68.3203125 3.925625 68.3203125 4.265625 C60.66221698 4.28877091 53.00412508 4.3065516 45.34600258 4.31743717 C41.79022615 4.32266106 38.23447361 4.32974978 34.67871094 4.34106445 C30.59309659 4.35398414 26.50750744 4.35885729 22.421875 4.36328125 C20.50152939 4.37102318 20.50152939 4.37102318 18.54238892 4.37892151 C17.36131561 4.37899704 16.18024231 4.37907257 14.96337891 4.37915039 C13.91969147 4.381371 12.87600403 4.38359161 11.8006897 4.38587952 C9.3203125 4.265625 9.3203125 4.265625 7.3203125 3.265625 C5.2828362 3.03704386 3.23990947 2.85538222 1.1953125 2.703125 C-0.44824219 2.57744141 -0.44824219 2.57744141 -2.125 2.44921875 C-2.96804687 2.38863281 -3.81109375 2.32804687 -4.6796875 2.265625 C-2.6796875 0.265625 -2.6796875 0.265625 0 0 Z " fill="#7A7DCB" transform="translate(114.6796875,91.734375)"/>
<path d="M0 0 C0.99 0.33 1.98 0.66 3 1 C-6.56604038 10.73906953 -18.3239361 16.618712 -32.0625 17.109375 C-34.7126659 17.12289625 -37.35157853 17.09063039 -40 17 C-40 16.67 -40 16.34 -40 16 C-39.05640625 15.91363281 -38.1128125 15.82726562 -37.140625 15.73828125 C-26.87902383 14.6152747 -18.68369159 11.89170274 -9.4375 7.1875 C-7 6 -7 6 -4 6 C-4 5.34 -4 4.68 -4 4 C-3.34 4 -2.68 4 -2 4 C-2 3.34 -2 2.68 -2 2 C-1.34 2 -0.68 2 0 2 C0 1.34 0 0.68 0 0 Z " fill="#7249BF" transform="translate(268,247)"/>
<path d="M0 0 C2.875 -0.125 2.875 -0.125 6 0 C8 2 8 2 8.25 4.5 C8 7 8 7 6 9 C3 9.25 3 9.25 0 9 C-0.66 8.34 -1.32 7.68 -2 7 C-1.6730244 4.38419521 -1.17960932 2.35921863 0 0 Z " fill="#324EB7" transform="translate(112,103)"/>
<path d="M0 0 C2.475 0.495 2.475 0.495 5 1 C5 1.66 5 2.32 5 3 C5.9075 3.268125 6.815 3.53625 7.75 3.8125 C11 5 11 5 12.6875 6.4375 C15.98179442 8.66337461 19.40714755 9.31505028 23.25 10.1875 C24.36761719 10.45336914 24.36761719 10.45336914 25.5078125 10.72460938 C27.33652271 11.15834193 29.16800779 11.58034597 31 12 C31 12.33 31 12.66 31 13 C19.19702829 13.66530321 11.12477015 10.58960088 2 3 C1.34 2.01 0.68 1.02 0 0 Z " fill="#5B46AF" transform="translate(40,250)"/>
<path d="M0 0 C2.875 -0.125 2.875 -0.125 6 0 C8 2 8 2 8.125 5.625 C8.08375 6.73875 8.0425 7.8525 8 9 C4.625 9.125 4.625 9.125 1 9 C0.34 8.34 -0.32 7.68 -1 7 C-0.625 3.375 -0.625 3.375 0 0 Z " fill="#575DA7" transform="translate(187,104)"/>
<path d="M0 0 C2.625 0.1875 2.625 0.1875 5.625 2.1875 C5.9375 4.6875 5.9375 4.6875 5.625 7.1875 C3.625 9.1875 3.625 9.1875 0.5625 9.375 C-2.375 9.1875 -2.375 9.1875 -3.375 8.1875 C-3.5 4.6875 -3.5 4.6875 -3.375 1.1875 C-2.375 0.1875 -2.375 0.1875 0 0 Z " fill="#655EA5" transform="translate(189.375,164.8125)"/>
<path d="M0 0 C1.8125 0.1875 1.8125 0.1875 4 1 C7.38872565 5.62850333 7.61940102 9.38372469 7.48828125 14.98046875 C6.7274395 19.68551411 4.51980518 22.85155041 1 26 C-2.36758213 28.2545677 -4.78727867 28.09675254 -8.75 27.625 C-10.22726563 27.45871094 -10.22726563 27.45871094 -11.734375 27.2890625 C-12.48203125 27.19367188 -13.2296875 27.09828125 -14 27 C-14 26.67 -14 26.34 -14 26 C-13.34773437 25.97421875 -12.69546875 25.9484375 -12.0234375 25.921875 C-6.28727179 25.54961646 -2.47124297 24.92596944 2 21 C4.93384846 17.47938185 5.41708263 14.57248311 5.2265625 10 C4.89744304 7.09466957 4.22850798 4.65099091 3 2 C2.01 1.67 1.02 1.34 0 1 C0 0.67 0 0.34 0 0 Z " fill="#6B50B9" transform="translate(200,158)"/>
<path d="M0 0 C2.5625 0.1875 2.5625 0.1875 4.5625 2.1875 C4.8125 4.6875 4.8125 4.6875 4.5625 7.1875 C2.5625 9.1875 2.5625 9.1875 0.0625 9.5 C-1.175 9.3453125 -1.175 9.3453125 -2.4375 9.1875 C-4.4375 6.1875 -4.4375 6.1875 -4.125 3.5625 C-3.16420807 0.24340062 -3.16420807 0.24340062 0 0 Z " fill="#373A98" transform="translate(115.4375,164.8125)"/>
<path d="M0 0 C0 2 0 2 -1.609375 3.69140625 C-2.31578125 4.30886719 -3.0221875 4.92632813 -3.75 5.5625 C-4.44609375 6.18253906 -5.1421875 6.80257813 -5.859375 7.44140625 C-8.00278475 9.00202758 -9.46217192 9.43174719 -12 10 C-12.70151152 11.3153341 -13.36525925 12.65117592 -14 14 C-16.125 15.75 -16.125 15.75 -18 17 C-16.58493806 12.5719691 -14.42419494 10.04806062 -11.125 6.8125 C-10.26132812 5.95269531 -9.39765625 5.09289062 -8.5078125 4.20703125 C-5.79706857 1.82140769 -3.68622874 0 0 0 Z " fill="#4E91E0" transform="translate(52,18)"/>
<path d="M0 0 C4.44881013 8.89762025 4.22721626 17.30543953 4 27 C1.62409858 23.29583874 1.79499714 20.07015427 1.875 15.75 C1.89304687 14.48671875 1.91109375 13.2234375 1.9296875 11.921875 C1.95289063 10.95765625 1.97609375 9.9934375 2 9 C1.34 9 0.68 9 0 9 C0 6.03 0 3.06 0 0 Z " fill="#5552C1" transform="translate(279,40)"/>
<path d="M0 0 C0.33 0 0.66 0 1 0 C1.52428933 9.47604427 -0.62861354 15.6735496 -5 24 C-5.66 24 -6.32 24 -7 24 C-6.08805259 21.19901868 -5.18313679 18.43125759 -4.03125 15.71875 C-2.84069383 12.58001101 -2.10300938 9.46354221 -1.375 6.1875 C-0.98441406 4.44533203 -0.98441406 4.44533203 -0.5859375 2.66796875 C-0.39257812 1.78753906 -0.19921875 0.90710938 0 0 Z " fill="#B4A7DF" transform="translate(283,217)"/>
<path d="M0 0 C0.66 0.33 1.32 0.66 2 1 C0.57282151 2.67551353 -0.86708482 4.34019309 -2.3125 6 C-3.11300781 6.928125 -3.91351563 7.85625 -4.73828125 8.8125 C-7 11 -7 11 -10 11 C-10.33 12.32 -10.66 13.64 -11 15 C-11.66 13.68 -12.32 12.36 -13 11 C-8.71 7.37 -4.42 3.74 0 0 Z " fill="#675FBF" transform="translate(173,129)"/>
<path d="M0 0 C0.99 0.495 0.99 0.495 2 1 C2 1.66 2 2.32 2 3 C7.70690634 3.99250545 13.21408489 4.10477512 19 4 C18.67 4.66 18.34 5.32 18 6 C13.66334333 7.44555222 9.53198775 7.53402403 5 7 C1.875 5.1875 1.875 5.1875 0 3 C0 2.01 0 1.02 0 0 Z " fill="#7B6EC1" transform="translate(104,178)"/>
<path d="M0 0 C1.48831242 0.00667405 2.97660807 0.01863442 4.46484375 0.03515625 C5.22345703 0.03966797 5.98207031 0.04417969 6.76367188 0.04882812 C8.64326246 0.06064945 10.52281274 0.07858547 12.40234375 0.09765625 C12.73234375 1.41765625 13.06234375 2.73765625 13.40234375 4.09765625 C12.83515625 3.7728125 12.26796875 3.44796875 11.68359375 3.11328125 C9.21524201 2.01435753 7.58631156 1.82927291 4.90234375 1.84765625 C4.14953125 1.8425 3.39671875 1.83734375 2.62109375 1.83203125 C0.16659861 2.12587926 -1.41655017 2.97775085 -3.59765625 4.09765625 C-6.28515625 3.84765625 -6.28515625 3.84765625 -8.59765625 3.09765625 C-8.92765625 2.43765625 -9.25765625 1.77765625 -9.59765625 1.09765625 C-8.39109375 1.12859375 -8.39109375 1.12859375 -7.16015625 1.16015625 C-3.7728563 1.07753918 -3.76037812 0.10207324 0 0 Z " fill="#7261C2" transform="translate(186.59765625,153.90234375)"/>
<path d="M0 0 C2.0625 2.1875 2.0625 2.1875 3 4 C0.03824877 3.38722388 -1.38058783 2.74627478 -4 1 C-7.20379124 0.75753217 -7.20379124 0.75753217 -10.6875 0.875 C-11.86699219 0.89304688 -13.04648438 0.91109375 -14.26171875 0.9296875 C-15.61716797 0.96449219 -15.61716797 0.96449219 -17 1 C-17 0.34 -17 -0.32 -17 -1 C-10.52193383 -3.2378774 -6.16191338 -3.21872305 0 0 Z " fill="#655EC3" transform="translate(125,155)"/>
<path d="M0 0 C0.66 0.33 1.32 0.66 2 1 C0.54540569 2.64913882 -0.91379257 4.29421782 -2.375 5.9375 C-3.18710938 6.85402344 -3.99921875 7.77054688 -4.8359375 8.71484375 C-7 11 -7 11 -9 12 C-9.33 10.68 -9.66 9.36 -10 8 C-6.7 5.36 -3.4 2.72 0 0 Z " fill="#6455BC" transform="translate(140,155)"/>
<path d="M0 0 C15.92938497 -0.55353075 15.92938497 -0.55353075 22 3 C22 3.33 22 3.66 22 4 C14.62346781 3.24984418 7.32168224 2.16558465 0 1 C0 0.67 0 0.34 0 0 Z " fill="#4B5FD3" transform="translate(233,12)"/>
<path d="M0 0 C0.33 0.99 0.66 1.98 1 3 C-2.00189139 7.97188261 -5.82244737 13.12744283 -11 16 C-13.21484375 15.65625 -13.21484375 15.65625 -15 15 C-14.50371094 14.67128906 -14.00742187 14.34257812 -13.49609375 14.00390625 C-7.87166105 10.0657361 -3.96623436 5.57751706 0 0 Z " fill="#B4A5DE" transform="translate(275,241)"/>
<path d="M0 0 C0.66 0.33 1.32 0.66 2 1 C0.56877218 2.48523642 -0.87020889 3.96300462 -2.3125 5.4375 C-3.11300781 6.26121094 -3.91351563 7.08492188 -4.73828125 7.93359375 C-8.59469893 11.45698745 -11.97605756 11.09479137 -17 11 C-17 10.67 -17 10.34 -17 10 C-16.05125 9.835 -15.1025 9.67 -14.125 9.5 C-8.48952004 7.94937512 -4.33082109 3.74698806 0 0 Z " fill="#7545CB" transform="translate(200,253)"/>
<path d="M0 0 C0.99 0.33 1.98 0.66 3 1 C2.57847656 1.4125 2.15695313 1.825 1.72265625 2.25 C-2.64799846 6.85718426 -3.56701942 9.72178165 -4 16 C-4.66 16.33 -5.32 16.66 -6 17 C-6.68829114 8.39636076 -6.68829114 8.39636076 -4.125 4.4375 C-3.42375 3.633125 -2.7225 2.82875 -2 2 C-1.34 2 -0.68 2 0 2 C0 1.34 0 0.68 0 0 Z " fill="#554DBF" transform="translate(105,156)"/>
<path d="M0 0 C0.66 0 1.32 0 2 0 C0.40984142 6.79431391 -2.02027325 14.0135155 -8 18 C-6.443154 13.98696492 -4.68861143 10.0907072 -2.875 6.1875 C-2.33617187 5.02605469 -1.79734375 3.86460937 -1.2421875 2.66796875 C-0.62730469 1.34732422 -0.62730469 1.34732422 0 0 Z " fill="#6F48BD" transform="translate(279,228)"/>
<path d="M0 0 C1.65 0 3.3 0 5 0 C5.66 1.98 6.32 3.96 7 6 C5.00045254 6.04254356 2.99958364 6.04080783 1 6 C0 5 0 5 -0.0625 2.4375 C-0.041875 1.633125 -0.02125 0.82875 0 0 Z " fill="#3C339E" transform="translate(187,167)"/>
<path d="M0 0 C2.31 0 4.62 0 7 0 C7 1.65 7 3.3 7 5 C4.69 5 2.38 5 0 5 C0 3.35 0 1.7 0 0 Z " fill="#323CA5" transform="translate(188,106)"/>
<path d="M0 0 C3.96 0 7.92 0 12 0 C12 0.66 12 1.32 12 2 C12.61875 2.12375 13.2375 2.2475 13.875 2.375 C16 3 16 3 18 5 C17.625 7.125 17.625 7.125 17 9 C16.21625 8.195625 15.4325 7.39125 14.625 6.5625 C12.28017144 4.01309583 12.28017144 4.01309583 10 3 C10 2.34 10 1.68 10 1 C6.7 1 3.4 1 0 1 C0 0.67 0 0.34 0 0 Z " fill="#6B66C2" transform="translate(187,93)"/>
<path d="M0 0 C1.04929687 -0.01675781 2.09859375 -0.03351563 3.1796875 -0.05078125 C6.125 0.3125 6.125 0.3125 10.125 3.3125 C4.185 2.9825 -1.755 2.6525 -7.875 2.3125 C-5.19374409 -0.36875591 -3.73375084 0.01369346 0 0 Z " fill="#727CD6" transform="translate(117.875,91.6875)"/>
<path d="M0 0 C2.22941405 0.31073024 4.45852212 0.62365625 6.6875 0.9375 C7.92886719 1.11152344 9.17023437 1.28554688 10.44921875 1.46484375 C13.32474548 1.89822897 16.15644813 2.39649282 19 3 C19 3.33 19 3.66 19 4 C12.02330843 4.39325819 6.48343811 3.63096039 0 1 C0 0.67 0 0.34 0 0 Z " fill="#6A53B7" transform="translate(52,259)"/>
<path d="M0 0 C1.98 0 3.96 0 6 0 C5.360625 0.20625 4.72125 0.4125 4.0625 0.625 C1.65074923 1.89538209 1.65074923 1.89538209 1.25 5.125 C1.1675 6.07375 1.085 7.0225 1 8 C2.65 8 4.3 8 6 8 C6 8.33 6 8.66 6 9 C3.125 9.125 3.125 9.125 0 9 C-0.66 8.34 -1.32 7.68 -2 7 C-1.6730244 4.38419521 -1.17960932 2.35921863 0 0 Z " fill="#596CB5" transform="translate(112,103)"/>
<path d="M0 0 C3.63 0.33 7.26 0.66 11 1 C10.01 2.32 9.02 3.64 8 5 C4.20411134 4.45773019 2.52788007 2.79872437 0 0 Z " fill="#635EBE" transform="translate(149,131)"/>
<path d="M0 0 C2.171875 0.37109375 2.171875 0.37109375 4 1 C3.51789063 1.38671875 3.03578125 1.7734375 2.5390625 2.171875 C1.59160156 2.95304687 1.59160156 2.95304687 0.625 3.75 C-0.31472656 4.51570313 -0.31472656 4.51570313 -1.2734375 5.296875 C-3.08312318 7.08199481 -4.00117455 8.67949644 -5 11 C-5.47877076 6.88257146 -5.32165374 5.41993683 -2.75 2.0625 C-1.8425 1.381875 -0.935 0.70125 0 0 Z " fill="#576BD3" transform="translate(106,93)"/>
<path d="M0 0 C0.99 0.33 1.98 0.66 3 1 C1.71372289 2.17260611 0.42080217 3.3379283 -0.875 4.5 C-1.59429687 5.1496875 -2.31359375 5.799375 -3.0546875 6.46875 C-5 8 -5 8 -7 8 C-7 7.34 -7 6.68 -7 6 C-6.34 6 -5.68 6 -5 6 C-4.67 5.01 -4.34 4.02 -4 3 C-3.01 3 -2.02 3 -1 3 C-0.67 2.01 -0.34 1.02 0 0 Z " fill="#5553BA" transform="translate(168,123)"/>
<path d="M0 0 C1.95216435 3.90432869 2.50639991 6.72213252 3 11 C2.67 10.34 2.34 9.68 2 9 C1.34 9 0.68 9 0 9 C0 6.03 0 3.06 0 0 Z " fill="#5C5EC5" transform="translate(279,40)"/>
<path d="M0 0 C1.2065625 0.0309375 1.2065625 0.0309375 2.4375 0.0625 C-2.3125 4.9375 -2.3125 4.9375 -4.5625 6.0625 C-3.48963568 0.08511307 -3.48963568 0.08511307 0 0 Z " fill="#4A4B97" transform="translate(115.5625,164.9375)"/>
<path d="M0 0 C0.99 0.33 1.98 0.66 3 1 C0.60490662 3.89932357 -1.31245243 4.50168276 -5 5 C-3.35 3.35 -1.7 1.7 0 0 Z " fill="#695CB9" transform="translate(154,145)"/>
<path d="M0 0 C1.31471568 0.28151087 2.62675767 0.57553339 3.9375 0.875 C4.66839844 1.03742187 5.39929688 1.19984375 6.15234375 1.3671875 C8 2 8 2 9 4 C6.75 4.25 6.75 4.25 4 4 C1.6875 2 1.6875 2 0 0 Z " fill="#6776D4" transform="translate(246,12)"/>
</svg>
